<?xml version="1.0" encoding="UTF-8"?>
<!DOCTYPE svg PUBLIC "-//W3C//DTD SVG 1.1//EN" "http://www.w3.org/Graphics/SVG/1.1/DTD/svg11.dtd">
<!-- Creator: CorelDRAW -->
<svg xmlns="http://www.w3.org/2000/svg" xml:space="preserve" width="46px" height="33px" version="1.1" style="shape-rendering:geometricPrecision; text-rendering:geometricPrecision; image-rendering:optimizeQuality; fill-rule:evenodd; clip-rule:evenodd"
viewBox="0 0 46 32.38"
 xmlns:xlink="http://www.w3.org/1999/xlink"
 xmlns:xodm="http://www.corel.com/coreldraw/odm/2003">
 <defs>
  <style type="text/css">
   <![CDATA[
    .fil0 {fill:#fff;fill-rule:nonzero}
   ]]>
  </style>
    <mask id="id0">
  <linearGradient id="id1" gradientUnits="userSpaceOnUse" x1="10.13" y1="24.59" x2="14.21" y2="28.76">
   <stop offset="0" style="stop-opacity:1; stop-color:white"/>
   <stop offset="0.509804" style="stop-opacity:-1.19471E+002; stop-color:white"/>
   <stop offset="1" style="stop-opacity:0; stop-color:white"/>
  </linearGradient>
     <rect style="fill:url(#id1)" x="2.29" y="17.48" width="16.05" height="17.64"/>
    </mask>
    <mask id="id2">
  <linearGradient id="id3" gradientUnits="userSpaceOnUse" x1="14.36" y1="13.11" x2="10.17" y2="19.96">
   <stop offset="0" style="stop-opacity:1; stop-color:white"/>
   <stop offset="0.329412" style="stop-opacity:-1.19471E+002; stop-color:white"/>
   <stop offset="1" style="stop-opacity:0; stop-color:white"/>
  </linearGradient>
     <rect style="fill:url(#id3)" x="3.13" y="7.9" width="20.04" height="15.99"/>
    </mask>
 </defs>
 <g id="Layer_x0020_1">
  <metadata id="CorelCorpID_0Corel-Layer"/>
  <g id="_105553359339008">
   <path class="fil0" d="M10.89 22.37c-1.19,4.27 3.74,6.92 6.6,4.51 3.48,-2.98 2.75,-8.17 1.77,-10.99l-0.05 0.02 -0.14 0.06c-0.08,0.02 -0.15,0.05 -0.23,0.07l0 0c-0.1,0.04 -0.2,0.08 -0.3,0.12l-0.16 0.06 0 0 -0.07 0.03 0 0 -0.24 0.09 0 0 -0.07 0.04 0 0 -0.08 0.03 0 0 -0.08 0.03 -0.07 0.04 0 0 -0.08 0.03 0 0 -0.08 0.03 -0.08 0.04 -0.08 0.03 -0.07 0.04 -0.08 0.03 -0.08 0.04 -0.08 0.04 -0.07 0.03 -0.08 0.04 -0.08 0.04 -0.07 0.04 -0.08 0.04 0 0 -0.08 0.03 -0.07 0.04 -0.08 0.04 -0.08 0.04 -0.07 0.04 -0.08 0.04 0 0 -0.07 0.04 -0.08 0.04 -0.07 0.04 -0.08 0.04 -0.07 0.05 -0.08 0.04 -0.07 0.04 -0.08 0.04 -0.07 0.04 0 0 -0.07 0.04 -0.07 0.05 -0.08 0.04 -0.07 0.04 -0.07 0.05 -0.07 0.04 -0.07 0.04 -0.07 0.04 -0.07 0.05 -0.07 0.04 -0.07 0.05 -0.07 0.04 -0.07 0.05 -0.06 0.04 -0.07 0.05 -0.07 0.04 -0.07 0.05 -0.06 0.04 -0.07 0.05 -0.03 0.02 -0.03 0.02 -0.04 0.03 -0.03 0.02 -0.03 0.02 -0.04 0.03 -0.03 0.02 -0.03 0.03 -0.04 0.02 -0.04 0.03 0 0 -0.03 0.02 0 0 -0.03 0.02 -0.03 0.03 0 0 -0.04 0.03 -0.03 0.02 0 0 -0.03 0.03 -0.04 0.02 -0.03 0.03 -0.03 0.02 -0.04 0.03 -0.03 0.03 0 0 -0.03 0.02 -0.03 0.03 0 0 -0.04 0.02 -0.03 0.03 -0.03 0.02 -0.03 0.03 -0.03 0.03 -0.04 0.03 -0.03 0.02 -0.03 0.03 -0.03 0.02 0 0 -0.03 0.03 -0.04 0.03 0 0 -0.06 0.05 0 0 -0.03 0.03 0 0 -0.03 0.03 0 0 -0.03 0.03 0 0 -0.03 0.02 0 0 -0.07 0.06 -0.03 0.03 0 0 -0.03 0.03 0 0 -0.03 0.02 0 0 -0.03 0.03 0 0 -0.03 0.03 0 0 -0.06 0.06 0 0c-0.08,0.07 -0.16,0.15 -0.23,0.23l0 0c-0.07,0.07 -0.14,0.14 -0.2,0.21l-0.02 0.02 0 0 -0.03 0.03 0 0 -0.03 0.04 0 0 -0.02 0.01 0 0 -0.01 0.02 0 0 -0.01 0.02 -0.02 0.02 0 0 -0.02 0.01 -0.03 0.04 -0.01 0.02 0 0 -0.02 0.01 0 0 -0.01 0.02 -0.02 0.02 0 0 -0.01 0.01 0 0.01 -0.02 0.01 0 0 -0.01 0.02 -0.01 0.02 0 0 -0.02 0.02 0 0 -0.02 0.01 -0.01 0.02 0 0 -0.01 0.02 0 0 -0.02 0.02 0 0 -0.01 0.01 0 0 -0.02 0.02 0 0 -0.01 0.02 -0.01 0.02 -0.01 0.01 -0.02 0.02 0 0 -0.01 0.02 0 0 -0.01 0.02 0 0 -0.02 0.01 0 0 -0.01 0.02 -0.01 0.02 -0.01 0 -0.01 0.02 0 0 -0.01 0.01 0 0 -0.01 0.02 -0.02 0.02 0 0 -0.01 0.02 0 0 -0.01 0.02 0 0 -0.01 0.01 0 0 -0.01 0.02 0 0 -0.02 0.02 0 0 -0.01 0.02 0 0 -0.01 0.01 0 0 -0.02 0.02 0 0 -0.01 0.02 0 0 -0.01 0.02 0 0 -0.01 0.02 0 0 -0.01 0.01 0 0 -0.01 0.02 0 0 -0.02 0.02 0 0 -0.01 0.02 0 0 0 0.02 0 0 -0.02 0.01 -0.01 0.02 0 0 -0.01 0.02 -0.01 0.02 0 0 -0.01 0.01 0 0 -0.01 0.02 0 0 -0.01 0.02 0 0 -0.01 0.02 0 0c-0.06,0.1 -0.12,0.21 -0.18,0.32l0 0 0 0.01 -0.01 0.01c-0.04,0.09 -0.09,0.18 -0.13,0.28l-0.01 0.01 -0.03 0.05 0 0.01 -0.01 0.01c-0.06,0.15 -0.13,0.29 -0.19,0.43zm8.57 -6.78l0.01 0 0 0 0 0 0 0 0.03 0.08 0 0 0.03 0.08 0 0 0.03 0.08 0 0 0 0c1.33,3.51 2.84,7.22 2.14,11.07l0.16 -0.17 -0.26 0.66c-0.15,0.59 -0.36,1.12 -0.63,1.58l-0.56 1.42c-4.57,3.81 -11.63,1.92 -13.7,-3.64 -0.55,-1.47 -0.65,-3.02 -0.37,-4.53l0.01 -0.05 0.01 -0.04 0 -0.02 0.01 -0.05 0.01 -0.06 0 0 0.01 -0.05 0.01 -0.05 0.01 -0.02 0 -0.04 0.02 -0.05 0.01 -0.05 0.01 -0.06 0.03 -0.11 0.01 -0.05 0 -0.01 0.02 -0.05 0.01 -0.05 0.01 -0.05 0.02 -0.06 0.02 -0.05 0.01 -0.05 0.02 -0.05 0 -0.01 0.02 -0.05 0.01 -0.06 0.01 -0.01 0.01 -0.04 0.02 -0.05 0.01 -0.03 0 -0.02 0.02 -0.06 0.01 -0.03 0.01 -0.02 0 0 0.04 -0.1 0 -0.01 0.04 -0.1 0 -0.02 0.02 -0.03 0.02 -0.06 0.01 -0.02 0.01 -0.03 0.02 -0.05 0.01 -0.04 0.01 -0.02 0.02 -0.05 0.02 -0.05 0 0 0.05 -0.1 0.01 -0.02 0.03 -0.08 0.02 -0.03 0 -0.03 0.03 -0.05 0.02 -0.04 0 -0.01 0.03 -0.05 0.02 -0.05 0.01 -0.01 0 0 0.04 -0.09 0.01 -0.02 0.02 -0.03 0.07 -0.16 0.03 -0.04 0 -0.01 0.02 -0.04 0.03 -0.05 0.01 -0.02 0 0 0.05 -0.09 0.01 -0.02 0.01 -0.02 0.03 -0.05 0.02 -0.04 0.01 -0.01 0.06 -0.1 0 0 0.08 -0.13 0 0 0.08 -0.13 0 0 0.08 -0.13 0 0 0.08 -0.13 0 0 0.09 -0.12 0 0 0.09 -0.13 0.09 -0.12 0 0 0.09 -0.13 0.1 -0.12 0.09 -0.12 0.1 -0.12 0.1 -0.12 0.1 -0.11 0.1 -0.12 0.1 -0.12 0.11 -0.11 0.11 -0.11 0.1 -0.12 0.11 -0.11 0.11 -0.11 0 0 0.12 -0.11 0 0 0.11 -0.1 0.11 -0.11 0 0 0.12 -0.11 0.12 -0.1 0 0 0.11 -0.11 0 0 0.12 -0.1 0.12 -0.1 0.12 -0.1 0 0 0.13 -0.1 0 0 0.12 -0.1 0.12 -0.1 0 0 0.13 -0.1 0.13 -0.09 0.12 -0.09 0.13 -0.1 0.13 -0.09 0.13 -0.09 0.13 -0.09 0 0 0.13 -0.09 0.13 -0.09 0 0 0.13 -0.08 0 0 0.14 -0.09 0.13 -0.09 0.13 -0.08 0 0 0.13 -0.08 0 0 0.14 -0.08 0.13 -0.08 0.14 -0.09 0.14 -0.07 0.13 -0.08 0.14 -0.08 0.13 -0.07 0.14 -0.08 0.14 -0.07 0.13 -0.08 0.14 -0.07 0 0 0.14 -0.07 0.13 -0.07 0 0 0.14 -0.06 0 0 0.14 -0.07 0 0 0.13 -0.07 0.14 -0.07 0 0 0.13 -0.06 0 0 0.04 -0.02 0 0 0.04 -0.02 0 0 0.03 -0.01 0 0 0.04 -0.02 0.04 -0.02 0 0 0.04 -0.02 0 0 0.03 -0.01 0 0 0.04 -0.02 0 0 0.04 -0.02 0 0 0.03 -0.01 0.04 -0.02 0.04 -0.02 0 0 0.03 -0.01 0.04 -0.02 0 0 0.03 -0.01 0.04 -0.02 0 0 0.03 -0.02 0.04 -0.01 0.04 -0.02 0.03 -0.02 0.04 -0.01 0.03 -0.02 0.04 -0.01 0.03 -0.02 0.04 -0.01 0 0 0.03 -0.02 0.04 -0.01 0.03 -0.02 0 0 0.04 -0.01 0 0 0.03 -0.02 0.04 -0.01 0.03 -0.02 0.04 -0.01 0 0 0.03 -0.02 0 0 0.04 -0.01 0.04 -0.01 0 0 0.03 -0.02 0.04 -0.01 0 0 0.03 -0.02 0.04 -0.01 0 0 0.04 -0.01 0.03 -0.02 0.04 -0.01 0 0 0.03 -0.01 0 0 0.04 -0.01 0 0 0.04 -0.02 0 0 0.04 -0.01 0 0 0.03 -0.01 0 0 0.04 -0.02 0.03 -0.01 0.04 -0.01 0 0 0.04 -0.01 0 0 0.04 -0.02 0 0 0.04 -0.01 0 0 0.04 -0.01 0.03 -0.01 0 0 0.04 -0.01 0 0 0.04 -0.01 0.04 -0.02 0 0 0.04 -0.01 0 0 0.04 -0.01 0.04 -0.01 0.04 -0.01 0.04 -0.01 0.03 0.05 0.03 0.04 0.03 0.05 0.02 0.05 0.04 0.05 0.02 0.04 0.03 0.05 0.03 0.06 0.03 0.05 0.03 0.05 0.04 0.05 0.02 0.06 0.03 0.05 0.03 0.05 0.04 0.06 0.03 0.05 0.03 0.06 0.03 0.05 0.03 0.06 0.03 0.06 0.03 0.06 0.03 0.06 0.04 0.06 0.03 0.06 0.03 0.06 0.03 0.06 0.03 0.06 0.04 0.06 0.03 0.06 0.03 0.07 0 0 0.03 0.06 0.03 0.06 0.04 0.07 0 0 0.03 0.06 0.03 0.07 0.04 0.06 0.03 0.07 0.03 0.07 0.04 0.06 0.03 0.07 0.03 0.06 0 0 0.03 0.07 0.03 0.07 0 0 0.04 0.07 0.03 0.07 0.04 0.07 0 0 0.03 0.07 0.03 0.07 0.03 0.07 0.04 0.07 0 0.01 0.03 0.07 0.03 0.07 0 0 0.04 0.07 0.03 0.08 0 0 0.03 0.07 0.03 0.07 0.04 0.07 0 0 0.03 0.08 0 0 0.03 0.08 0 0 0.04 0.07 0 0 0.02 0.07z"/>
   <path class="fil0" style="mask:url(#id0)" d="M10.89 22.37c-0.81,2.93 1.25,5.1 3.55,5.39l0 3.46 -3.92 0c-1.68,-0.95 -3.07,-2.47 -3.81,-4.47 -0.55,-1.47 -0.65,-3.02 -0.37,-4.53l0.01 -0.05 0.01 -0.04 0 -0.02 0.01 -0.05 0.01 -0.06 0 0 0.01 -0.05 0.01 -0.05 0.01 -0.02 0 -0.04 0.02 -0.05 0.01 -0.05 0.01 -0.06 0.03 -0.11 0.01 -0.05 0 -0.01 0.02 -0.05 0.01 -0.05 0.01 -0.03 4.83 0 -0.09 0.18 0 0 0 0.01 -0.01 0.01c-0.04,0.09 -0.09,0.18 -0.13,0.28l-0.01 0.01 -0.03 0.05 0 0.01 -0.01 0.01c-0.06,0.15 -0.13,0.29 -0.19,0.43z"/>
   <path class="fil0" d="M8.56 1.29c-1.38,-0.24 -2.39,1.04 -2.57,2.81 -1.08,10.41 -9.21,4.87 -4.55,-0.33 0.32,-0.29 0.64,-0.55 0.95,-0.8l0 0 0.01 -0.01c0.08,-0.06 0.16,-0.12 0.24,-0.18 1.55,-1.14 4.02,-2.37 5.92,-1.49z"/>
   <path class="fil0" d="M18.26 13.46c0.16,0.38 0.3,0.75 0.43,1.1 -0.13,-0.36 -0.27,-0.72 -0.43,-1.1z"/>
   <path class="fil0" d="M31.7 15.08c-0.34,5.38 -0.05,9.62 3.19,14.27 1.32,1.91 3.26,1.09 4.24,-0.91 4.64,-9.37 10.34,-1.36 4.15,1.9 -2.55,0.98 -4.75,1.32 -6.63,1.17 -2.13,-0.18 -3.84,-0.96 -5.2,-2.16 -1.29,-1.15 -2.23,-2.67 -2.88,-4.39 -1.15,-3 -1.43,-6.68 -1.33,-10.02l-0.22 -0.01 -0.01 0 -0.03 0c-0.51,-0.02 -1.09,-0.02 -1.68,0.01l-0.01 0 -0.05 0 -0.01 0c-0.53,0.02 -1.06,0.07 -1.58,0.13l0 -0.01c-0.14,0.02 -0.27,0.04 -0.4,0.07 -0.86,0.14 -1.48,0.38 -1.48,0.74l-4.03 -4.14c1.01,-0.46 2.73,-0.92 5.29,-1.14 2.93,-0.3 5.58,-0.12 7.48,0.06 0.49,0.04 1,0.08 1.52,0.14l-0.32 4.15 -0.01 0.14z"/>
   <path class="fil0" d="M6.34 22.22l0.01 -0.05 0.01 -0.04 0 -0.02 0.01 -0.05 0.01 -0.06 0 0 0.01 -0.05 0.01 -0.05 0.01 -0.02 0 -0.04 0.02 -0.05 0.01 -0.05 0.01 -0.06 0.03 -0.11 0.01 -0.05 0 -0.01 0.02 -0.05 0.01 -0.05 0.01 -0.05 0.02 -0.06 0.02 -0.05 0.01 -0.05 0.02 -0.05 0 -0.01 0.02 -0.05 0.01 -0.06 0.01 -0.01 0.01 -0.04 0.02 -0.05 0.01 -0.03 0 -0.02 0.02 -0.06 0.01 -0.03 0.01 -0.02 0 0 0.04 -0.1 0 -0.01 0.04 -0.1 0 -0.02 0.02 -0.03 0.02 -0.06 0.01 -0.02 0.01 -0.03 0.02 -0.05 0.01 -0.04 0.01 -0.02 0.02 -0.05 0.02 -0.05 0 0 0.05 -0.1 0.01 -0.02 0.03 -0.08 0.02 -0.03 0 -0.03 0.03 -0.05 0.02 -0.04 0 -0.01 0.03 -0.05 0.02 -0.05 0.01 -0.01 0 0 0.04 -0.09 0.01 -0.02 0.02 -0.03 0.07 -0.16 0.03 -0.04 0 -0.01 0.02 -0.04 0.03 -0.05 0.01 -0.02 0 0 0.05 -0.09 0.01 -0.02 0.01 -0.02 0.03 -0.05 0.02 -0.04 0.01 -0.01 0.06 -0.1 0 0 0.08 -0.13 0 0 0.08 -0.13 0 0 0.08 -0.13 0 0 0.08 -0.13 0 0 0.09 -0.12 0 0 0.09 -0.13 0.09 -0.12 0 0 0.09 -0.13 0.1 -0.12 0.09 -0.12 0.1 -0.12 0.1 -0.12 0.1 -0.11 0.1 -0.12 0.1 -0.12 0.11 -0.11 0.11 -0.11 0.1 -0.12 0.11 -0.11 0.11 -0.11 0 0 0.12 -0.11 0 0 0.11 -0.1 0.11 -0.11 0 0 0.12 -0.11 0.12 -0.1 0 0 0.11 -0.11 0 0 0.12 -0.1 0.12 -0.1 0.12 -0.1 0 0 0.13 -0.1 0 0 0.12 -0.1 0.12 -0.1 0 0 0.13 -0.1 0.13 -0.09 0.12 -0.09 0.13 -0.1 0.13 -0.09 0.13 -0.09 0.13 -0.09 0 0 0.13 -0.09 0.13 -0.09 0 0 0.13 -0.08 0 0 0.14 -0.09 0.13 -0.09 0.13 -0.08 0 0 0.13 -0.08 0 0 0.14 -0.08 0.13 -0.08 0.14 -0.09 0.14 -0.07 0.13 -0.08 0.14 -0.08 0.13 -0.07 0.14 -0.08 0.14 -0.07 0.13 -0.08 0.14 -0.07 0 0 0.14 -0.07 0.13 -0.07 0 0 0.14 -0.06 0 0 0.14 -0.07 0 0 0.13 -0.07 0.14 -0.07 0 0 0.13 -0.06 0 0 0.04 -0.02 0 0 0.04 -0.02 0 0 0.03 -0.01 0 0 0.04 -0.02 0.04 -0.02 0 0 0.04 -0.02 0 0 0.03 -0.01 0 0 0.04 -0.02 0 0 0.04 -0.02 0 0 0.03 -0.01 0.04 -0.02 0.04 -0.02 0 0 0.03 -0.01 0.04 -0.02 0 0 0.03 -0.01 0.04 -0.02 0 0 0.03 -0.02 0.04 -0.01 0.04 -0.02 0.03 -0.02 0.04 -0.01 0.03 -0.02 0.04 -0.01 0.03 -0.02 0.04 -0.01 0 0 0.03 -0.02 0.04 -0.01 0.03 -0.02 0 0 0.04 -0.01 0 0 0.03 -0.02 0.04 -0.01 0.03 -0.02 0.04 -0.01 0 0 0.03 -0.02 0 0 0.04 -0.01 0.04 -0.01 0 0 0.03 -0.02 0.04 -0.01 0 0 0.03 -0.02 0.04 -0.01 0 0 0.04 -0.01 0.03 -0.02 0.04 -0.01 0 0 0.03 -0.01 0 0 0.04 -0.01 0 0 0.04 -0.02 0 0 0.04 -0.01 0 0 0.03 -0.01 0 0 0.04 -0.02 0.03 -0.01 0.04 -0.01 0 0 0.04 -0.01 0 0 0.04 -0.02 0 0 0.04 -0.01 0 0 0.04 -0.01 0.03 -0.01 0 0 0.04 -0.01 0 0 0.04 -0.01 0.04 -0.02 0 0 0.04 -0.01 0 0 0.04 -0.01 0.04 -0.01 0.04 -0.01 0.04 -0.01 0.03 0.05 0.03 0.04 0.03 0.05 0.02 0.05 0.04 0.05 0.02 0.04 0.03 0.05 0.03 0.06 0.03 0.05 0.03 0.05 0.04 0.05 0.02 0.06 0.03 0.05 0.03 0.05 0.04 0.06 0.03 0.05 0.03 0.06 0.03 0.05 0.03 0.06 0.03 0.06 0.03 0.06 0.03 0.06 0.04 0.06 0.03 0.06 0.03 0.06 0.03 0.06 0.03 0.06 0.04 0.06 0.03 0.06 0.03 0.07 0 0 0.03 0.06 0.03 0.06 0.04 0.07 0 0 0.03 0.06 0.03 0.07 0.04 0.06 0.03 0.07 0.03 0.07 0.04 0.06 0.03 0.07 0.03 0.06 0 0 0.03 0.07 0.03 0.07 0 0 0.04 0.07 0.03 0.07 0.04 0.07 0 0 0.03 0.07 0.03 0.07 0.03 0.07 0.04 0.07 0 0.01 0.03 0.07 0.03 0.07 0 0 0.04 0.07 0.03 0.08 0 0 0.03 0.07 0.03 0.07 0.04 0.07 0 0 0.03 0.08 0 0 0.03 0.08 0 0 0.04 0.07 0 0 0.03 0.07 0 0 0.03 0.08 0 0 0.03 0.08 0 0 0.03 0.08 0 0 -0.24 0.04 0 0 -0.11 0.04 -0.14 0.06c-0.08,0.02 -0.15,0.05 -0.23,0.07l0 0c-0.1,0.04 -0.2,0.08 -0.3,0.12l-0.16 0.06 0 0 -0.07 0.03 0 0 -0.24 0.09 0 0 -0.07 0.04 0 0 -0.08 0.03 0 0 -0.08 0.03 -0.07 0.04 0 0 -0.08 0.03 0 0 -0.08 0.03 -0.08 0.04 -0.08 0.03 -0.07 0.04 -0.08 0.03 -0.08 0.04 -0.08 0.04 -0.07 0.03 -0.08 0.04 -0.08 0.04 -0.07 0.04 -0.08 0.04 0 0 -0.08 0.03 -0.07 0.04 -0.08 0.04 -0.08 0.04 -0.07 0.04 -0.08 0.04 0 0 -0.07 0.04 -0.08 0.04 -0.07 0.04 -0.08 0.04 -0.07 0.05 -0.08 0.04 -0.07 0.04 -0.08 0.04 -0.07 0.04 0 0 -0.07 0.04 -0.07 0.05 -0.08 0.04 -0.07 0.04 -0.07 0.05 -0.07 0.04 -0.07 0.04 -0.07 0.04 -0.07 0.05 -0.07 0.04 -0.07 0.05 -0.07 0.04 -0.07 0.05 -0.06 0.04 -0.07 0.05 -0.07 0.04 -0.07 0.05 -0.06 0.04 -0.07 0.05 -0.03 0.02 -0.03 0.02 -0.04 0.03 -0.03 0.02 -0.03 0.02 -0.04 0.03 -0.03 0.02 -0.03 0.03 -0.04 0.02 -0.04 0.03 0 0 -0.03 0.02 0 0 -0.03 0.02 -0.03 0.03 0 0 -0.04 0.03 -0.03 0.02 0 0 -0.03 0.03 -0.04 0.02 -0.03 0.03 -0.03 0.02 -0.04 0.03 -0.03 0.03 0 0 -0.03 0.02 -0.03 0.03 0 0 -0.04 0.02 -0.03 0.03 -0.03 0.02 -0.03 0.03 -0.03 0.03 -0.04 0.03 -0.03 0.02 -0.03 0.03 -0.03 0.02 0 0 -0.03 0.03 -0.04 0.03 0 0 -0.06 0.05 0 0 -0.03 0.03 0 0 -0.03 0.03 0 0 -0.03 0.03 0 0 -0.03 0.02 0 0 -0.07 0.06 -0.03 0.03 0 0 -0.03 0.03 0 0 -0.03 0.02 0 0 -0.03 0.03 0 0 -0.03 0.03 0 0 -0.06 0.06 0 0c-0.08,0.07 -0.16,0.15 -0.23,0.23l0 0c-0.07,0.07 -0.14,0.14 -0.2,0.21l-0.02 0.02 0 0 -0.03 0.03 0 0 -0.03 0.04 0 0 -0.02 0.01 0 0 -0.01 0.02 0 0 -0.01 0.02 -0.02 0.02 0 0 -0.02 0.01 -0.03 0.04 -0.01 0.02 0 0 -0.02 0.01 0 0 -0.01 0.02 -0.02 0.02 0 0 -0.01 0.01 0 0.01 -0.02 0.01 0 0 -0.01 0.02 -0.01 0.02 0 0 -0.02 0.02 0 0 -0.02 0.01 -0.01 0.02 0 0 -0.01 0.02 0 0 -0.02 0.02 0 0 -0.01 0.01 0 0 -0.02 0.02 0 0 -0.01 0.02 -0.01 0.02 -0.01 0.01 -0.02 0.02 0 0 -0.01 0.02 0 0 -0.01 0.02 0 0 -0.02 0.01 0 0 -0.01 0.02 -0.01 0.02 -0.01 0 -0.01 0.02 0 0 -0.01 0.01 0 0 -0.01 0.02 -0.02 0.02 0 0 -0.01 0.02 0 0 -0.01 0.02 0 0 -0.01 0.01 0 0 -0.01 0.02 0 0 -0.02 0.02 0 0 -0.01 0.02 0 0 -0.01 0.01 0 0 -0.02 0.02 0 0 -0.01 0.02 0 0 -0.01 0.02 0 0 -0.01 0.02 0 0 -0.01 0.01 0 0 -0.01 0.02 0 0 -0.02 0.02 0 0 -0.01 0.02 0 0 0 0.02 0 0 -0.02 0.01 -0.01 0.02 0 0 -0.01 0.02 -0.01 0.02 0 0 -0.01 0.01 0 0 -0.01 0.02 0 0 -0.01 0.02 0 0 -0.01 0.02 0 0c-0.06,0.1 -0.12,0.21 -0.18,0.32l0 0 0 0.01 -0.01 0.01c-0.04,0.09 -0.09,0.18 -0.13,0.28l-0.01 0.01 -0.03 0.05 0 0.01 -0.01 0.01c-3.16,6.74 4.03,11.17 8.13,7.55l2.65 -2.76 -1.45 3.66c-4.57,3.81 -11.63,1.92 -13.7,-3.64 -0.55,-1.47 -0.65,-3.02 -0.37,-4.53z"/>
   <path class="fil0" style="mask:url(#id2)" d="M11.8 14.63c1.49,-1.02 3.94,-2.34 5.68,-2.83 0.9,1.87 1.47,3.21 1.79,4.09 -2.13,0.79 -4.23,1.79 -5.97,3.27 -0.7,0.09 -1.72,-1.93 -2.42,-1.84 -1.39,0.18 -2.13,1.16 -3.85,2.67 0.86,-2.02 2.85,-4.1 4.77,-5.36z"/>
   <path class="fil0" d="M8.6 1.3c-3.37,-0.86 -5.68,1.51 -6,1.51 3.01,-2.3 6.1,-3.25 8.99,-2.62 9.11,1.96 18.56,22.41 8.82,30.2l-1.2 -0.9c5.01,-5.13 -1.21,-17.06 -3.89,-21.79 -1.83,-3.22 -4.35,-5.8 -6.72,-6.4z"/>
   <path class="fil0" d="M37.47 30.25c0.21,-0.11 0.41,-0.24 0.61,-0.41l0.03 -0.02 0 0 0.06 -0.06 0.01 0c0.33,-0.3 0.63,-0.68 0.87,-1.16 0.03,-0.05 0.06,-0.1 0.08,-0.15 4.64,-9.38 10.34,-1.36 4.15,1.9 -2.55,0.98 -4.75,1.32 -6.63,1.16 -1.86,-0.14 -3.39,-0.75 -4.64,-1.69 1.87,0.78 3.92,1.2 5.46,0.43z"/>
  </g>
 </g>
</svg>
